#!OML:ASF G:\JayActor3\Patient Classification 1\Patient 1\Session 6\male.ASF
:FULLY-SPECIFIED
:DEGREES
1083
root 9.12693 14.69 -3.83558 11.4537 -34.3913 7.1189
lowerback 34.9211 3.34083 12.1642
upperback 11.2034 7.98558 5.42856
thorax -4.13871 3.71097 -3.11798
lowerneck -7.86083 0.741288 2.67388
upperneck 19.4645 4.98335 -23.1012
head 7.97813 0.655559 -7.91224
rclavicle -2.22639e-014 2.8625e-014
rhumerus 16.2762 38.3806 -27.3214
rradius 43.7031
rwrist 10.5532
rhand -26.1375 3.23332
rfingers 7.12502
rthumb 0.412904 -26.746
lclavicle -2.22639e-014 2.8625e-014
lhumerus -52.2765 -15.1836 95.6887
lradius 52.9028
lwrist 31.5593
lhand -8.09611 3.45784
lfingers 7.12502
lthumb 17.8164 32.6617
rfemur -61.531 -28.6267 18.2831
rtibia 74.5814
rfoot -27.8014 -13.0387
rtoes -2.78752
lfemur -59.1401 11.5293 -31.4639
ltibia 60.1166
lfoot -15.2378 -5.10125
ltoes -0.301775
1084
root 9.13571 14.66 -3.85039 11.5815 -34.3878 7.32227
lowerback 35.1502 3.34123 12.1311
upperback 11.3031 7.98795 5.45119
thorax -4.11943 3.71069 -3.08378
lowerneck -7.90307 0.721605 2.63956
upperneck 19.4306 4.95273 -23.0826
head 7.96966 0.640998 -7.89955
rclavicle 3.18055e-015 9.54166e-014
rhumerus 16.8301 38.1564 -26.8039
rradius 43.5034
rwrist 10.6599
rhand -26.2578 3.25782
rfingers 7.12502
rthumb 0.296714 -26.7217
lclavicle 3.18055e-015 9.54166e-014
lhumerus -52.3854 -14.9738 95.7921
lradius 52.895
lwrist 31.4954
lhand -8.00139 3.39108
lfingers 7.12502
lthumb 17.9075 32.5866
rfemur -62.2328 -28.7565 18.3182
rtibia 75.0273
rfoot -27.8064 -12.9747
rtoes -2.84142
lfemur -59.7104 11.395 -31.7078
ltibia 60.4794
lfoot -15.2705 -5.05531
ltoes -0.32052
1085
root 9.14456 14.6297 -3.86518 11.7281 -34.3827 7.49346
lowerback 35.3752 3.33551 12.1118
upperback 11.4007 7.98736 5.4838
thorax -4.10009 3.70861 -3.0447
lowerneck -7.93407 0.70158 2.58465
upperneck 19.3856 4.91989 -23.0527
head 7.95444 0.625991 -7.87809
rclavicle 4.77083e-014 -6.36111e-014
rhumerus 17.3967 37.9299 -26.2782
rradius 43.3081
rwrist 10.7627
rhand -26.3403 3.28197
rfingers 7.12502
rthumb 0.217084 -26.6977
lclavicle 4.77083e-014 -6.36111e-014
lhumerus -52.5098 -14.7487 95.9013
lradius 52.9067
lwrist 31.4244
lhand -7.89406 3.3455
lfingers 7.12502
lthumb 18.0108 32.5316
rfemur -62.934 -28.8783 18.3864
rtibia 75.4671
rfoot -27.8111 -12.9133
rtoes -2.88257
lfemur -60.2892 11.2591 -31.9199
ltibia 60.854
lfoot -15.3072 -4.9981
ltoes -0.356814
1086
root 9.15361 14.5994 -3.8801 11.9093 -34.3749 7.59381
lowerback 35.6079 3.32168 12.1462
upperback 11.4912 7.99633 5.52485
thorax -4.08241 3.71096 -3.02602
lowerneck -7.95305 0.674611 2.53076
upperneck 19.3357 4.87434 -23.0172
head 7.93309 0.606413 -7.85537
rclavicle -9.54166e-015 2.70347e-014
rhumerus 17.9346 37.6843 -25.7805
rradius 43.1197
rwrist 10.8617
rhand -26.3909 3.29355
rfingers 7.12502
rthumb 0.168174 -26.6861
lclavicle -9.54166e-015 2.70347e-014
lhumerus -52.6545 -14.5491 96.0195
lradius 52.9344
lwrist 31.3669
lhand -7.7911 3.31719
lfingers 7.12502
lthumb 18.1098 32.4941
rfemur -63.6198 -28.9795 18.5193
rtibia 75.8965
rfoot -27.8247 -12.862
rtoes -2.92078
lfemur -60.877 11.1369 -32.0669
ltibia 61.2435
lfoot -15.348 -4.93788
ltoes -0.423838
1087
root 9.16216 14.5691 -3.89535 12.1023 -34.3667 7.66004
lowerback 35.8535 3.30846 12.1948
upperback 11.5752 8.0139 5.5731
thorax -4.07382 3.7163 -3.01022
lowerneck -7.96443 0.642121 2.48265
upperneck 19.2829 4.81914 -22.9826
head 7.90788 0.58319 -7.83465
rclavicle -3.49861e-014 1.59028e-014
rhumerus 18.4426 37.4242 -25.3053
rradius 42.9456
rwrist 10.9421
rhand -26.4177 3.30149
rfingers 7.12502
rthumb 0.142324 -26.6782
lclavicle -3.49861e-014 1.59028e-014
lhumerus -52.8087 -14.3573 96.1365
lradius 52.9659
lwrist 31.3217
lhand -7.66777 3.29708
lfingers 7.12502
lthumb 18.2285 32.463
rfemur -64.2914 -29.0645 18.6807
rtibia 76.3202
rfoot -27.8426 -12.8177
rtoes -2.95649
lfemur -61.4637 11.0213 -32.1764
ltibia 61.6434
lfoot -15.3899 -4.88146
ltoes -0.465608
1088
root 9.17 14.538 -3.91079 12.3003 -34.3525 7.73418
lowerback 36.0857 3.29779 12.2188
upperback 11.6545 8.02643 5.62901
thorax -4.07063 3.71823 -2.97274
lowerneck -7.96756 0.60989 2.42322
upperneck 19.2235 4.76493 -22.9515
head 7.87915 0.560175 -7.8126
rclavicle -4.45278e-014 0
rhumerus 18.9452 37.1608 -24.8339
rradius 42.7853
rwrist 11.0018
rhand -26.4405 3.29648
rfingers 7.12502
rthumb 0.120285 -26.6832
lclavicle -4.45278e-014 0
lhumerus -52.9698 -14.1586 96.2613
lradius 52.9996
lwrist 31.3006
lhand -7.53221 3.29677
lfingers 7.12502
lthumb 18.3589 32.4504
rfemur -64.9783 -29.1506 18.842
rtibia 76.7478
rfoot -27.8611 -12.7769
rtoes -2.99358
lfemur -62.0641 10.8948 -32.2897
ltibia 62.0507
lfoot -15.4317 -4.82575
ltoes -0.500194
